<svg width="58" height="58" viewBox="0 0 58 58" fill="none" xmlns="http://www.w3.org/2000/svg">
<circle cx="29" cy="29" r="29" fill="url(#paint0_linear_48_1000)"/>
<circle cx="29" cy="29" r="25" fill="#EEEEF2"/>
<path d="M29 17.3333C34.799 17.3333 39.5 22.0343 39.5 27.8333C39.5 31.4194 37.5448 34.354 35.4848 36.4602C34.3546 37.6156 33.1529 38.5635 32.1287 39.2798L31.6325 39.6185C31.5526 39.6717 31.4743 39.7233 31.3976 39.7732L30.9587 40.0529L30.5667 40.2923L30.0816 40.5744C29.4059 40.956 28.5941 40.956 27.9184 40.5744L27.4333 40.2923L26.8273 39.918C26.7541 39.8714 26.6791 39.8232 26.6024 39.7732L26.1236 39.454C25.0478 38.72 23.7396 37.7119 22.5152 36.4602C20.4552 34.354 18.5 31.4194 18.5 27.8333C18.5 22.0343 23.201 17.3333 29 17.3333ZM29 24.3333C27.0669 24.3333 25.5 25.9003 25.5 27.8333C25.5 29.7663 27.0669 33.9263 29 33.9263C30.9331 33.9263 32.5 29.7663 32.5 27.8333C32.5 25.9003 30.9331 24.3333 29 24.3333Z" fill="url(#paint1_linear_48_1000)"/>
<defs>
<linearGradient id="paint0_linear_48_1000" x1="29" y1="0" x2="29" y2="58" gradientUnits="userSpaceOnUse">
<stop stop-color="#8283D1"/>
<stop offset="1" stop-color="#047BFE"/>
</linearGradient>
<linearGradient id="paint1_linear_48_1000" x1="29" y1="17.3333" x2="29" y2="40.8606" gradientUnits="userSpaceOnUse">
<stop stop-color="#8283D1"/>
<stop offset="1" stop-color="#047BFE"/>
</linearGradient>
</defs>
</svg>
